<?xml version="1.0" encoding="utf-8"?>
<svg width="220px" height="50px" viewBox="0 0 48 50" version="1.1" xmlns="http://www.w3.org/2000/svg">
    <title>Logo</title>
    <desc>Created with Sketch.</desc>
    <defs>
        <polygon id="path-1" points="0 27.9828657 158.864744 27.9828657 158.864744 0 0 0"/>
    </defs>
    <g id="Page-1" stroke="none" stroke-width="1" fill="none" fill-rule="evenodd">
        <g id="1_0_0_Homepage_Desktop@2x" transform="translate(-132.000000, -60.000000)">
            <g id="LogoLight" transform="translate(132.000000, 60.000000)">
                <g id="LogoBlue" transform="translate(0.000000, 0.000000)" fill="#0033CC">
                    <path d="M38.7010683,28.0300687 L25.9808938,40.5515464 C25.344501,41.1783505 24.3087483,41.1783505 23.6720065,40.5515464 C23.0354392,39.9250859 23.0354392,38.9054983 23.6720065,38.2786942 L26.8520501,35.1484536 C26.8522247,35.1482818 26.8522247,35.1482818 26.8522247,35.1482818 L36.3920065,25.7572165 C36.8081229,25.3475945 37.2938829,25.2864261 37.5466247,25.2864261 C37.7991919,25.2864261 38.2849519,25.3475945 38.7010683,25.7572165 C39.3376356,26.3838488 39.3376356,27.4034364 38.7010683,28.0300687 M44.8721229,19.6824742 C42.9154683,17.7561856 40.3136938,16.6953608 37.5466247,16.6953608 C34.779381,16.6953608 32.177781,17.7561856 30.2209519,19.6824742 L21.7418829,28.0292096 L21.7410101,28.0300687 C20.2999629,29.4484536 18.3843265,30.2297251 16.3465083,30.2297251 C14.3088647,30.2297251 12.3928792,29.4484536 10.9520065,28.0300687 C7.9775774,25.1020619 7.97740285,20.3379725 10.9516574,17.4099656 L19.4319483,9.06185567 C19.8480647,8.65223368 20.3338247,8.59106529 20.5865665,8.59106529 C20.8391338,8.59106529 21.3248938,8.65223368 21.7410101,9.06185567 C22.3774029,9.68848797 22.3774029,10.7080756 21.7410101,11.3347079 L13.073781,19.8668385 C11.3695192,21.5443299 11.3695192,24.2640893 13.073781,25.9415808 C13.9257374,26.7804124 15.0424792,27.1996564 16.159221,27.1996564 C17.2759629,27.1996564 18.3927047,26.7804124 19.2448356,25.9415808 L27.9120647,17.4094502 C31.9513956,13.4331615 31.9513956,6.96340206 27.9120647,2.9871134 C25.9554101,1.06082474 23.3538101,0 20.5865665,0 C17.8191483,0 15.2177229,1.06082474 13.2608938,2.9871134 L4.78130103,11.3343643 C4.78112649,11.3345361 4.78112649,11.3345361 4.78095194,11.3347079 C4.7807774,11.3348797 4.78060285,11.3348797 4.78042831,11.3350515 L4.50150467,11.609622 C4.40079194,11.7089347 4.3065374,11.8120275 4.21751922,11.9182131 C-1.5398626,18.1756014 -1.4016226,27.8472509 4.62595558,33.9443299 C4.67587558,33.9987973 4.72754103,34.0524055 4.78095194,34.104811 C6.69222467,35.9862543 8.99343194,37.3439863 11.5047919,38.1065292 L6.90098103,42.638488 C5.19689376,44.3161512 5.19689376,47.0359107 6.90098103,48.7134021 C7.7529374,49.5520619 8.86967922,49.9714777 9.98642103,49.9714777 C11.1033374,49.9714777 12.2200792,49.5520619 13.0720356,48.7134021 L16.4383192,45.3996564 C16.7547701,45.828866 17.1082247,46.2396907 17.5009519,46.6264605 C19.5206174,48.6146048 22.1737083,49.6085911 24.8266247,49.6085911 C27.479541,49.6085911 30.1324574,48.6146048 32.1519483,46.6264605 L44.8721229,34.104811 C48.9114538,30.1285223 48.9114538,23.6587629 44.8721229,19.6824742"
                          id="Fill-1"/>
                </g>
            </g>
        </g>
    </g>
</svg>
